<mxfile host="Electron" agent="Mozilla/5.0 (Windows NT 10.0; Win64; x64) AppleWebKit/537.36 (KHTML, like Gecko) draw.io/24.7.17 Chrome/128.0.6613.36 Electron/32.0.1 Safari/537.36" version="24.7.17">
  <diagram name="Page-1" id="8Esis5FagHG6TZfjdpRw">
    <mxGraphModel dx="1900" dy="629" grid="1" gridSize="10" guides="1" tooltips="1" connect="1" arrows="1" fold="1" page="1" pageScale="1" pageWidth="850" pageHeight="1100" math="0" shadow="0">
      <root>
        <mxCell id="0" />
        <mxCell id="1" parent="0" />
        <mxCell id="4S9dQXIzgwYkWXrfIpEj-1" value="Menu" style="ellipse;whiteSpace=wrap;html=1;" vertex="1" parent="1">
          <mxGeometry x="300" y="80" width="180" height="60" as="geometry" />
        </mxCell>
        <mxCell id="4S9dQXIzgwYkWXrfIpEj-2" value="&lt;b&gt;FOR RESEARCH&lt;/b&gt;&lt;div&gt;Libraries:&lt;div&gt;- os&lt;/div&gt;&lt;div&gt;- getpass&lt;/div&gt;&lt;div&gt;- cryptography.Fernet&lt;/div&gt;&lt;div style=&quot;&quot;&gt;- json/pickle&lt;/div&gt;&lt;/div&gt;" style="text;html=1;align=left;verticalAlign=middle;whiteSpace=wrap;rounded=0;" vertex="1" parent="1">
          <mxGeometry x="510" y="80" width="160" height="30" as="geometry" />
        </mxCell>
        <mxCell id="4S9dQXIzgwYkWXrfIpEj-3" value="" style="edgeStyle=orthogonalEdgeStyle;rounded=0;orthogonalLoop=1;jettySize=auto;html=1;" edge="1" parent="1" source="4S9dQXIzgwYkWXrfIpEj-4" target="4S9dQXIzgwYkWXrfIpEj-8">
          <mxGeometry relative="1" as="geometry" />
        </mxCell>
        <mxCell id="4S9dQXIzgwYkWXrfIpEj-4" value="Make a new entry" style="shape=parallelogram;perimeter=parallelogramPerimeter;whiteSpace=wrap;html=1;fixedSize=1;" vertex="1" parent="1">
          <mxGeometry x="90" y="180" width="160" height="60" as="geometry" />
        </mxCell>
        <mxCell id="4S9dQXIzgwYkWXrfIpEj-5" value="View/Edit" style="shape=parallelogram;perimeter=parallelogramPerimeter;whiteSpace=wrap;html=1;fixedSize=1;" vertex="1" parent="1">
          <mxGeometry x="310" y="180" width="160" height="60" as="geometry" />
        </mxCell>
        <mxCell id="4S9dQXIzgwYkWXrfIpEj-6" value="About program" style="shape=parallelogram;perimeter=parallelogramPerimeter;whiteSpace=wrap;html=1;fixedSize=1;" vertex="1" parent="1">
          <mxGeometry x="600" y="180" width="160" height="60" as="geometry" />
        </mxCell>
        <mxCell id="4S9dQXIzgwYkWXrfIpEj-7" value="" style="edgeStyle=orthogonalEdgeStyle;rounded=0;orthogonalLoop=1;jettySize=auto;html=1;" edge="1" parent="1" source="4S9dQXIzgwYkWXrfIpEj-8" target="4S9dQXIzgwYkWXrfIpEj-10">
          <mxGeometry relative="1" as="geometry" />
        </mxCell>
        <mxCell id="4S9dQXIzgwYkWXrfIpEj-8" value="Input ng&amp;nbsp; user" style="whiteSpace=wrap;html=1;" vertex="1" parent="1">
          <mxGeometry x="110" y="320" width="120" height="60" as="geometry" />
        </mxCell>
        <mxCell id="4S9dQXIzgwYkWXrfIpEj-9" value="" style="edgeStyle=orthogonalEdgeStyle;rounded=0;orthogonalLoop=1;jettySize=auto;html=1;" edge="1" parent="1" source="4S9dQXIzgwYkWXrfIpEj-10" target="4S9dQXIzgwYkWXrfIpEj-12">
          <mxGeometry relative="1" as="geometry" />
        </mxCell>
        <mxCell id="4S9dQXIzgwYkWXrfIpEj-10" value="Are you done with your entry" style="shape=parallelogram;perimeter=parallelogramPerimeter;whiteSpace=wrap;html=1;fixedSize=1;" vertex="1" parent="1">
          <mxGeometry x="110" y="460" width="120" height="60" as="geometry" />
        </mxCell>
        <mxCell id="4S9dQXIzgwYkWXrfIpEj-11" value="" style="edgeStyle=orthogonalEdgeStyle;rounded=0;orthogonalLoop=1;jettySize=auto;html=1;" edge="1" parent="1" source="4S9dQXIzgwYkWXrfIpEj-12" target="4S9dQXIzgwYkWXrfIpEj-15">
          <mxGeometry relative="1" as="geometry" />
        </mxCell>
        <mxCell id="4S9dQXIzgwYkWXrfIpEj-12" value="Password&amp;nbsp;" style="whiteSpace=wrap;html=1;" vertex="1" parent="1">
          <mxGeometry x="110" y="600" width="120" height="60" as="geometry" />
        </mxCell>
        <mxCell id="4S9dQXIzgwYkWXrfIpEj-13" value="Notes on password:&lt;div&gt;- Function for invalid input for password&lt;/div&gt;" style="text;html=1;align=left;verticalAlign=middle;whiteSpace=wrap;rounded=0;" vertex="1" parent="1">
          <mxGeometry x="30" y="570" width="160" height="30" as="geometry" />
        </mxCell>
        <mxCell id="4S9dQXIzgwYkWXrfIpEj-14" value="" style="edgeStyle=orthogonalEdgeStyle;rounded=0;orthogonalLoop=1;jettySize=auto;html=1;entryX=0.5;entryY=0;entryDx=0;entryDy=0;" edge="1" parent="1" source="4S9dQXIzgwYkWXrfIpEj-15" target="4S9dQXIzgwYkWXrfIpEj-36">
          <mxGeometry relative="1" as="geometry" />
        </mxCell>
        <mxCell id="4S9dQXIzgwYkWXrfIpEj-15" value="Turn file to cyrptography" style="whiteSpace=wrap;html=1;" vertex="1" parent="1">
          <mxGeometry x="110" y="690" width="120" height="60" as="geometry" />
        </mxCell>
        <mxCell id="4S9dQXIzgwYkWXrfIpEj-16" value="End" style="ellipse;whiteSpace=wrap;html=1;" vertex="1" parent="1">
          <mxGeometry x="310" y="910" width="180" height="60" as="geometry" />
        </mxCell>
        <mxCell id="4S9dQXIzgwYkWXrfIpEj-17" value="" style="shape=waypoint;sketch=0;size=6;pointerEvents=1;points=[];fillColor=default;resizable=0;rotatable=0;perimeter=centerPerimeter;snapToPoint=1;" vertex="1" parent="1">
          <mxGeometry x="160" y="790" width="20" height="20" as="geometry" />
        </mxCell>
        <mxCell id="4S9dQXIzgwYkWXrfIpEj-18" value="" style="shape=waypoint;sketch=0;size=6;pointerEvents=1;points=[];fillColor=default;resizable=0;rotatable=0;perimeter=centerPerimeter;snapToPoint=1;" vertex="1" parent="1">
          <mxGeometry x="380" y="900" width="20" height="20" as="geometry" />
        </mxCell>
        <mxCell id="4S9dQXIzgwYkWXrfIpEj-19" value="Choose the file you wanna edit" style="whiteSpace=wrap;html=1;" vertex="1" parent="1">
          <mxGeometry x="330" y="320" width="120" height="60" as="geometry" />
        </mxCell>
        <mxCell id="4S9dQXIzgwYkWXrfIpEj-20" value="Password&amp;nbsp;" style="whiteSpace=wrap;html=1;" vertex="1" parent="1">
          <mxGeometry x="330" y="550" width="120" height="60" as="geometry" />
        </mxCell>
        <mxCell id="4S9dQXIzgwYkWXrfIpEj-21" value="- If invalid input or wrong, loop till correct" style="text;html=1;align=left;verticalAlign=middle;whiteSpace=wrap;rounded=0;" vertex="1" parent="1">
          <mxGeometry x="390" y="390" width="90" height="30" as="geometry" />
        </mxCell>
        <mxCell id="4S9dQXIzgwYkWXrfIpEj-22" value="Counter variable where if 3 attempts, then reset" style="text;html=1;align=left;verticalAlign=middle;whiteSpace=wrap;rounded=0;" vertex="1" parent="1">
          <mxGeometry x="230" y="670" width="90" height="20" as="geometry" />
        </mxCell>
        <mxCell id="4S9dQXIzgwYkWXrfIpEj-23" value="&amp;nbsp;Reset/Edit&lt;div&gt;password&lt;/div&gt;" style="whiteSpace=wrap;html=1;" vertex="1" parent="1">
          <mxGeometry x="340" y="650" width="120" height="60" as="geometry" />
        </mxCell>
        <mxCell id="4S9dQXIzgwYkWXrfIpEj-24" value="" style="endArrow=classic;html=1;rounded=0;exitX=1;exitY=0.5;exitDx=0;exitDy=0;" edge="1" parent="1" source="4S9dQXIzgwYkWXrfIpEj-12">
          <mxGeometry width="50" height="50" relative="1" as="geometry">
            <mxPoint x="370" y="680" as="sourcePoint" />
            <mxPoint x="320" y="670" as="targetPoint" />
          </mxGeometry>
        </mxCell>
        <mxCell id="4S9dQXIzgwYkWXrfIpEj-25" value="" style="endArrow=classic;html=1;rounded=0;exitX=0.5;exitY=1;exitDx=0;exitDy=0;" edge="1" parent="1" source="4S9dQXIzgwYkWXrfIpEj-20">
          <mxGeometry width="50" height="50" relative="1" as="geometry">
            <mxPoint x="370" y="480" as="sourcePoint" />
            <mxPoint x="390" y="640" as="targetPoint" />
          </mxGeometry>
        </mxCell>
        <mxCell id="4S9dQXIzgwYkWXrfIpEj-26" value="" style="endArrow=classic;html=1;rounded=0;exitX=1;exitY=0.5;exitDx=0;exitDy=0;" edge="1" parent="1" source="4S9dQXIzgwYkWXrfIpEj-20">
          <mxGeometry width="50" height="50" relative="1" as="geometry">
            <mxPoint x="370" y="580" as="sourcePoint" />
            <mxPoint x="500" y="490" as="targetPoint" />
          </mxGeometry>
        </mxCell>
        <mxCell id="4S9dQXIzgwYkWXrfIpEj-27" value="Choose the file you wanna edit" style="whiteSpace=wrap;html=1;" vertex="1" parent="1">
          <mxGeometry x="330" y="320" width="120" height="60" as="geometry" />
        </mxCell>
        <mxCell id="4S9dQXIzgwYkWXrfIpEj-28" value="Edit file." style="whiteSpace=wrap;html=1;" vertex="1" parent="1">
          <mxGeometry x="510" y="460" width="120" height="60" as="geometry" />
        </mxCell>
        <mxCell id="4S9dQXIzgwYkWXrfIpEj-29" value="" style="endArrow=classic;html=1;rounded=0;exitX=0.5;exitY=1;exitDx=0;exitDy=0;" edge="1" parent="1" source="4S9dQXIzgwYkWXrfIpEj-27">
          <mxGeometry width="50" height="50" relative="1" as="geometry">
            <mxPoint x="370" y="380" as="sourcePoint" />
            <mxPoint x="390" y="440" as="targetPoint" />
          </mxGeometry>
        </mxCell>
        <mxCell id="4S9dQXIzgwYkWXrfIpEj-30" value="syntax for checking inputs:&lt;div&gt;&lt;br&gt;&lt;/div&gt;&lt;div&gt;try:&lt;/div&gt;&lt;div&gt;&amp;nbsp; &amp;nbsp;while True:&lt;/div&gt;&lt;div&gt;&amp;nbsp; &amp;nbsp; &amp;nbsp;function&lt;/div&gt;&lt;div&gt;except:&lt;/div&gt;&lt;div&gt;&amp;nbsp; &amp;nbsp; raise&lt;/div&gt;" style="text;html=1;align=left;verticalAlign=middle;whiteSpace=wrap;rounded=0;" vertex="1" parent="1">
          <mxGeometry x="670" y="80" width="130" height="30" as="geometry" />
        </mxCell>
        <mxCell id="4S9dQXIzgwYkWXrfIpEj-31" value="or loop to Menu" style="text;html=1;align=left;verticalAlign=middle;whiteSpace=wrap;rounded=0;" vertex="1" parent="1">
          <mxGeometry x="350" y="980" width="100" height="30" as="geometry" />
        </mxCell>
        <mxCell id="4S9dQXIzgwYkWXrfIpEj-32" value="Do you&lt;div&gt;want to edit?&lt;/div&gt;" style="shape=parallelogram;perimeter=parallelogramPerimeter;whiteSpace=wrap;html=1;fixedSize=1;" vertex="1" parent="1">
          <mxGeometry x="330" y="450" width="120" height="60" as="geometry" />
        </mxCell>
        <mxCell id="4S9dQXIzgwYkWXrfIpEj-33" value="" style="endArrow=classic;html=1;rounded=0;" edge="1" parent="1">
          <mxGeometry width="50" height="50" relative="1" as="geometry">
            <mxPoint x="390" y="510" as="sourcePoint" />
            <mxPoint x="389" y="540" as="targetPoint" />
          </mxGeometry>
        </mxCell>
        <mxCell id="4S9dQXIzgwYkWXrfIpEj-34" value="" style="edgeStyle=orthogonalEdgeStyle;rounded=0;orthogonalLoop=1;jettySize=auto;html=1;" edge="1" parent="1" source="4S9dQXIzgwYkWXrfIpEj-36" target="4S9dQXIzgwYkWXrfIpEj-45">
          <mxGeometry relative="1" as="geometry" />
        </mxCell>
        <mxCell id="4S9dQXIzgwYkWXrfIpEj-35" value="" style="edgeStyle=orthogonalEdgeStyle;rounded=0;orthogonalLoop=1;jettySize=auto;html=1;" edge="1" parent="1" source="4S9dQXIzgwYkWXrfIpEj-36" target="4S9dQXIzgwYkWXrfIpEj-46">
          <mxGeometry relative="1" as="geometry" />
        </mxCell>
        <mxCell id="4S9dQXIzgwYkWXrfIpEj-36" value="Add &quot;diary_entry_n&quot;&lt;div&gt;&lt;br&gt;&lt;/div&gt;&lt;div&gt;where n is entry #&lt;/div&gt;" style="whiteSpace=wrap;html=1;" vertex="1" parent="1">
          <mxGeometry x="110" y="780" width="120" height="60" as="geometry" />
        </mxCell>
        <mxCell id="4S9dQXIzgwYkWXrfIpEj-37" value="" style="endArrow=classic;html=1;rounded=0;exitX=0.458;exitY=1.007;exitDx=0;exitDy=0;exitPerimeter=0;entryX=0.435;entryY=-0.06;entryDx=0;entryDy=0;entryPerimeter=0;" edge="1" parent="1" source="4S9dQXIzgwYkWXrfIpEj-5" target="4S9dQXIzgwYkWXrfIpEj-27">
          <mxGeometry width="50" height="50" relative="1" as="geometry">
            <mxPoint x="290" y="310" as="sourcePoint" />
            <mxPoint x="340" y="260" as="targetPoint" />
          </mxGeometry>
        </mxCell>
        <mxCell id="4S9dQXIzgwYkWXrfIpEj-38" value="" style="endArrow=classic;html=1;rounded=0;exitX=0.5;exitY=1;exitDx=0;exitDy=0;" edge="1" parent="1" source="4S9dQXIzgwYkWXrfIpEj-28">
          <mxGeometry width="50" height="50" relative="1" as="geometry">
            <mxPoint x="560" y="625" as="sourcePoint" />
            <mxPoint x="560" y="560" as="targetPoint" />
          </mxGeometry>
        </mxCell>
        <mxCell id="4S9dQXIzgwYkWXrfIpEj-39" value="input" style="whiteSpace=wrap;html=1;" vertex="1" parent="1">
          <mxGeometry x="500" y="560" width="120" height="60" as="geometry" />
        </mxCell>
        <mxCell id="4S9dQXIzgwYkWXrfIpEj-40" value="Are you done with your entry" style="shape=parallelogram;perimeter=parallelogramPerimeter;whiteSpace=wrap;html=1;fixedSize=1;" vertex="1" parent="1">
          <mxGeometry x="500" y="670" width="120" height="60" as="geometry" />
        </mxCell>
        <mxCell id="4S9dQXIzgwYkWXrfIpEj-41" value="" style="endArrow=classic;html=1;rounded=0;exitX=0.5;exitY=1;exitDx=0;exitDy=0;" edge="1" parent="1">
          <mxGeometry width="50" height="50" relative="1" as="geometry">
            <mxPoint x="565" y="620" as="sourcePoint" />
            <mxPoint x="560" y="660" as="targetPoint" />
          </mxGeometry>
        </mxCell>
        <mxCell id="4S9dQXIzgwYkWXrfIpEj-42" value="" style="endArrow=classic;html=1;rounded=0;exitX=0.5;exitY=1;exitDx=0;exitDy=0;" edge="1" parent="1" source="4S9dQXIzgwYkWXrfIpEj-40">
          <mxGeometry width="50" height="50" relative="1" as="geometry">
            <mxPoint x="520" y="830" as="sourcePoint" />
            <mxPoint x="240" y="770" as="targetPoint" />
          </mxGeometry>
        </mxCell>
        <mxCell id="4S9dQXIzgwYkWXrfIpEj-43" value="modified file" style="text;html=1;align=center;verticalAlign=middle;whiteSpace=wrap;rounded=0;" vertex="1" parent="1">
          <mxGeometry x="370" y="750" width="60" height="30" as="geometry" />
        </mxCell>
        <mxCell id="4S9dQXIzgwYkWXrfIpEj-44" value="" style="curved=1;endArrow=classic;html=1;rounded=0;exitX=0;exitY=0.5;exitDx=0;exitDy=0;entryX=0;entryY=0.5;entryDx=0;entryDy=0;" edge="1" parent="1" source="4S9dQXIzgwYkWXrfIpEj-23" target="4S9dQXIzgwYkWXrfIpEj-1">
          <mxGeometry width="50" height="50" relative="1" as="geometry">
            <mxPoint x="300" y="640" as="sourcePoint" />
            <mxPoint x="260" y="100" as="targetPoint" />
            <Array as="points">
              <mxPoint x="310" y="640" />
              <mxPoint x="300" y="590" />
              <mxPoint x="240" y="460" />
              <mxPoint x="260" y="340" />
              <mxPoint x="250" y="220" />
            </Array>
          </mxGeometry>
        </mxCell>
        <mxCell id="4S9dQXIzgwYkWXrfIpEj-45" value="&quot;entry added successfully&quot;" style="whiteSpace=wrap;html=1;" vertex="1" parent="1">
          <mxGeometry x="110" y="870" width="120" height="60" as="geometry" />
        </mxCell>
        <mxCell id="4S9dQXIzgwYkWXrfIpEj-46" value="&quot;Diary entry edited successfully&quot;" style="whiteSpace=wrap;html=1;" vertex="1" parent="1">
          <mxGeometry x="-90" y="780" width="120" height="60" as="geometry" />
        </mxCell>
        <mxCell id="4S9dQXIzgwYkWXrfIpEj-47" value="if modfiied" style="text;html=1;align=center;verticalAlign=middle;whiteSpace=wrap;rounded=0;" vertex="1" parent="1">
          <mxGeometry x="40" y="770" width="60" height="30" as="geometry" />
        </mxCell>
        <mxCell id="4S9dQXIzgwYkWXrfIpEj-48" value="if first time" style="text;html=1;align=center;verticalAlign=middle;whiteSpace=wrap;rounded=0;" vertex="1" parent="1">
          <mxGeometry x="180" y="840" width="60" height="30" as="geometry" />
        </mxCell>
        <mxCell id="4S9dQXIzgwYkWXrfIpEj-49" value="" style="endArrow=classic;html=1;rounded=0;exitX=0.5;exitY=1;exitDx=0;exitDy=0;entryX=0;entryY=0.5;entryDx=0;entryDy=0;" edge="1" parent="1" source="4S9dQXIzgwYkWXrfIpEj-46" target="4S9dQXIzgwYkWXrfIpEj-16">
          <mxGeometry width="50" height="50" relative="1" as="geometry">
            <mxPoint x="70" y="1020" as="sourcePoint" />
            <mxPoint x="120" y="970" as="targetPoint" />
            <Array as="points">
              <mxPoint x="-30" y="970" />
            </Array>
          </mxGeometry>
        </mxCell>
        <mxCell id="4S9dQXIzgwYkWXrfIpEj-50" value="Password edited successfully" style="whiteSpace=wrap;html=1;" vertex="1" parent="1">
          <mxGeometry x="215" y="390" width="120" height="60" as="geometry" />
        </mxCell>
        <mxCell id="4S9dQXIzgwYkWXrfIpEj-51" value="check for invalid input when:&lt;div&gt;- editing or inputting passwords&lt;/div&gt;&lt;div&gt;- pagpili sa menu if hindi nasa choices&lt;/div&gt;&lt;div&gt;- if it doesnt have special characters and at least n number of characters&lt;/div&gt;&lt;div&gt;- wrong password or file name&lt;/div&gt;" style="text;html=1;align=center;verticalAlign=middle;whiteSpace=wrap;rounded=0;" vertex="1" parent="1">
          <mxGeometry y="90" width="250" height="30" as="geometry" />
        </mxCell>
        <mxCell id="4S9dQXIzgwYkWXrfIpEj-52" value="" style="endArrow=classic;html=1;rounded=0;exitX=0.458;exitY=1.007;exitDx=0;exitDy=0;exitPerimeter=0;" edge="1" parent="1">
          <mxGeometry width="50" height="50" relative="1" as="geometry">
            <mxPoint x="670" y="240" as="sourcePoint" />
            <mxPoint x="670" y="300" as="targetPoint" />
          </mxGeometry>
        </mxCell>
        <mxCell id="4S9dQXIzgwYkWXrfIpEj-53" value="&quot;This was created by Group 5&quot;" style="whiteSpace=wrap;html=1;" vertex="1" parent="1">
          <mxGeometry x="620" y="310" width="120" height="60" as="geometry" />
        </mxCell>
        <mxCell id="4S9dQXIzgwYkWXrfIpEj-54" value="base64 encode-decode strings" style="text;html=1;align=left;verticalAlign=middle;whiteSpace=wrap;rounded=0;" vertex="1" parent="1">
          <mxGeometry x="510" y="150" width="160" height="30" as="geometry" />
        </mxCell>
      </root>
    </mxGraphModel>
  </diagram>
</mxfile>
